<?xml version="1.0" encoding="UTF-8"?>
<svg width="256px" height="256px" viewBox="0 0 256 256" version="1.1" xmlns="http://www.w3.org/2000/svg" xmlns:xlink="http://www.w3.org/1999/xlink">
    <!-- Generator: Sketch 49.2 (51160) - http://www.bohemiancoding.com/sketch -->
    <title>Movable Type and TypePad Importer </title>
    <desc>Created with Sketch.</desc>
    <defs>
        <linearGradient x1="50%" y1="-2.48949813e-15%" x2="50%" y2="100%" id="linearGradient-1">
            <stop stop-color="#99D9ED" offset="0%"></stop>
            <stop stop-color="#33B3DB" offset="100%"></stop>
        </linearGradient>
        <rect id="path-2" x="0" y="0" width="100" height="100" rx="13"></rect>
        <linearGradient x1="50%" y1="0%" x2="50%" y2="100%" id="linearGradient-3">
            <stop stop-color="#FBFBFC" offset="0%"></stop>
            <stop stop-color="#F3F4F5" offset="100%"></stop>
        </linearGradient>
        <path d="M72.4713872,111 L92.0026372,111 C95.2497075,111 97.8620122,113.612305 97.8620122,116.859375 L97.8620122,157.875 L119.273145,157.875 C123.618848,157.875 125.7917,163.124023 122.715528,166.200195 L85.5817387,203.358398 C83.750684,205.189453 69.2243168,111 72.4713872,111 Z" id="path-4"></path>
        <filter x="-2.9%" y="-1.6%" width="105.8%" height="103.2%" filterUnits="objectBoundingBox" id="filter-5">
            <feMorphology radius="0.5" operator="dilate" in="SourceAlpha" result="shadowSpreadOuter1"></feMorphology>
            <feOffset dx="0" dy="0" in="shadowSpreadOuter1" result="shadowOffsetOuter1"></feOffset>
            <feColorMatrix values="0 0 0 0 0.11372549   0 0 0 0 0.11372549   0 0 0 0 0.105882353  0 0 0 0.1 0" type="matrix" in="shadowOffsetOuter1"></feColorMatrix>
        </filter>
        <path d="M52.734375,0 L72.265625,0 C75.5126953,0 78.125,2.61230469 78.125,5.859375 L78.125,46.875 L99.5361328,46.875 C103.881836,46.875 106.054687,52.1240234 102.978516,55.2001953 L65.8447266,92.3583984 C64.0136719,94.1894531 61.0107422,94.1894531 59.1796875,92.3583984 L21.9970703,55.2001953 C18.9208984,52.1240234 21.09375,46.875 25.4394531,46.875 L46.875,46.875 L46.875,5.859375 C46.875,2.61230469 49.4873047,0 52.734375,0 Z M125,91.796875 L125,119.140625 C125,122.387695 122.387695,125 119.140625,125 L5.859375,125 C2.61230469,125 0,122.387695 0,119.140625 L0,91.796875 C0,88.5498047 2.61230469,85.9375 5.859375,85.9375 L41.6748047,85.9375 L53.6376953,97.9003906 C58.5449219,102.807617 66.4550781,102.807617 71.3623047,97.9003906 L83.3251953,85.9375 L119.140625,85.9375 C122.387695,85.9375 125,88.5498047 125,91.796875 Z" id="path-6"></path>
        <filter x="-26.4%" y="-26.4%" width="152.8%" height="152.8%" filterUnits="objectBoundingBox" id="filter-7">
            <feMorphology radius="1" operator="dilate" in="SourceAlpha" result="shadowSpreadOuter1"></feMorphology>
            <feOffset dx="0" dy="0" in="shadowSpreadOuter1" result="shadowOffsetOuter1"></feOffset>
            <feGaussianBlur stdDeviation="10" in="shadowOffsetOuter1" result="shadowBlurOuter1"></feGaussianBlur>
            <feColorMatrix values="0 0 0 0 0   0 0 0 0 0.403921569   0 0 0 0 0.6  0 0 0 0.4 0" type="matrix" in="shadowBlurOuter1"></feColorMatrix>
        </filter>
    </defs>
    <g id="Movable-Type-and-TypePad-Importer-" stroke="none" stroke-width="1" fill="none" fill-rule="evenodd">
        <rect id="Rectangle" fill="#C3E6FC" x="0" y="0" width="256" height="256"></rect>
        <rect id="Rectangle" fill="url(#linearGradient-1)" x="0" y="0" width="256" height="256"></rect>
        <g id="Group-4" transform="translate(78.000000, 22.000000)">
            <g id="Group-2">
                <rect id="Rectangle-3-Copy" fill="#000000" x="0" y="0" width="99.343955" height="99.343955" rx="13"></rect>
                <g id="Movable_Type_logo" transform="translate(50.000000, 43.909091) scale(1, -1) translate(-50.000000, -43.909091) translate(5.000000, 21.000000)" fill="#FFFFFF" fill-rule="nonzero">
                    <g id="新規シンボル_1" transform="translate(33.072289, 0.000000)">
                        <path d="M11.7479884,5.35265534 C10.3141105,5.35265534 8.97107995,5.74575018 7.8133515,6.42906611 C5.68500057,7.68529685 4.19028459,9.92894838 3.92413823,12.5454545 L0.209568141,12.5454545 C0.203500726,12.2150876 0.193661674,11.9054627 0.180050985,11.6421728 L0.00262008095,8.15266153 C-0.0464111948,7.19535014 0.598702647,6.05621147 1.43551402,5.62062893 L4.48644005,4.03319488 C4.90509172,3.81540361 5.44689551,3.51062965 5.98246791,3.19498286 C6.5180403,2.87967061 7.04705333,2.55365281 7.44110736,2.29270475 L10.3146025,0.39129664 C11.1028745,-0.130432213 12.3926103,-0.130432213 13.1808823,0.39129664 L16.0543775,2.29270475 C16.2714925,2.43622618 16.5296037,2.59982054 16.8072289,2.77027316 L14.9507638,6.05052414 C13.9721061,5.60406877 12.8896464,5.35265534 11.7479884,5.35265534 Z" id="Shape"></path>
                        <path d="M23.6770578,11.8885233 C23.653055,12.3692088 23.6405671,13.0027862 23.6405671,13.6363636 C23.6405671,14.2699411 23.6528928,14.9035185 23.6770578,15.384204 L23.8528621,18.8887893 C23.9010299,19.8503283 23.2633338,20.9941615 22.4357237,21.4316677 L19.417858,23.0266161 C19.1901557,23.1470815 18.925314,23.2939249 18.6447407,23.4545455 L16.8075533,20.1574563 C18.7530777,18.69171 20.0210094,16.3193649 20.0210094,13.6363636 C20.0210094,13.6361956 20.0210094,13.6361956 20.0210094,13.6361956 C20.0210094,10.9530263 18.7530777,8.58034527 16.8072289,7.11493496 L18.6445785,3.81818182 C18.9249896,3.97880235 19.1898313,4.12581381 19.4176958,4.24627921 L22.4357237,5.84072358 C23.263496,6.2782297 23.9010299,7.42239895 23.8528621,8.38393795 L23.6770578,11.8885233 Z" id="Shape"></path>
                        <path d="M7.81278364,20.2978762 C8.97066474,20.9813412 10.3138462,21.3744256 11.74771,21.3744256 C12.8893568,21.3744256 13.9718059,21.1230189 14.950782,20.6765754 L16.8072289,23.9565716 C16.5296064,24.127187 16.2713338,24.2904424 16.0543848,24.4341273 L13.1805899,26.3359865 C12.3923255,26.8577015 11.1029304,26.8577015 10.3146661,26.3359865 L7.44119909,24.4342946 C7.04731289,24.1735207 6.5178131,23.8475116 5.98240993,23.5320405 C5.44700676,23.2165694 4.90537225,22.9119709 4.48672469,22.6941854 L1.43550057,21.1067937 C0.598533409,20.6712228 -0.0464101328,19.5321145 0.00262066273,18.5748286 L0.180049829,15.0857449 C0.193660385,14.8222948 0.20349934,14.5123436 0.209566696,14.1818182 L3.92410041,14.1818182 C4.19008018,16.7985891 5.68428957,19.0420135 7.81278364,20.2978762 Z" id="Shape"></path>
                    </g>
                    <g id="新規シンボル_2" transform="translate(0.000000, 31.090909)">
                        <g id="Group">
                            <path d="M8.51894737,13.8465292 L7.49894737,13.8465292 C7.27526316,13.8465292 7.09789474,13.7237143 7.00868421,13.5025422 L4.66157895,7.20374026 L2.21289474,13.5096429 C2.12684211,13.7237143 1.94394737,13.8465292 1.71105263,13.8465292 L0.706315789,13.8465292 C0.442631579,13.8465292 0.258684211,13.6627013 0.258684211,13.3997143 L0.258684211,3.35466234 C0.258684211,3.09167532 0.442631579,2.9078474 0.706315789,2.9078474 L1.08631579,2.9078474 C1.35,2.9078474 1.53421053,3.09167532 1.53421053,3.35466234 L1.53421053,11.846776 L3.94052632,5.6678961 C4.03868421,5.45145779 4.23078947,5.32732792 4.46789474,5.32732792 L4.80315789,5.32732792 C5.06973684,5.32732792 5.27026316,5.45908442 5.35263158,5.68446429 L7.64605263,11.6989773 L7.64605263,3.35466234 C7.64605263,3.09167532 7.83,2.9078474 8.09263158,2.9078474 L8.51921053,2.9078474 C8.78236842,2.9078474 8.96631579,3.09167532 8.96631579,3.35466234 L8.96631579,13.3997143 C8.96605263,13.6627013 8.78210526,13.8465292 8.51894737,13.8465292 Z" id="Shape"></path>
                            <path d="M17.2289474,10.9065974 C16.9318421,11.2256006 16.5757895,11.4570292 16.17,11.5937825 C15.7752632,11.7268539 15.2689474,11.7920747 14.6218421,11.7920747 C13.9860526,11.7920747 13.4855263,11.7300097 13.0915789,11.602724 C12.6826316,11.4699156 12.3244737,11.2345422 12.0265789,10.9031786 C11.7105263,10.5536688 11.4728947,10.0600422 11.32,9.4365 C11.1726316,8.83820455 11.0978947,8.13339935 11.0978947,7.34207143 C11.0978947,6.56152597 11.175,5.83699675 11.3268421,5.18978571 C11.4857895,4.50812338 11.7131579,4.00003247 12.0221053,3.63395455 C12.3107895,3.29890909 12.6607895,3.06432468 13.0626316,2.93651299 C13.4457895,2.81448701 13.9457895,2.75531494 14.5913158,2.75531494 C15.2360526,2.75531494 15.7423684,2.81475 16.1394737,2.93598701 C16.555,3.06222078 16.9178947,3.29575325 17.2228947,3.63632143 C17.5257895,3.99503571 17.7594737,4.51837987 17.9168421,5.1900487 C18.0684211,5.8380487 18.1455263,6.56231494 18.1455263,7.34233442 C18.1455263,8.13313636 18.0710526,8.83557468 17.9236842,9.42992532 C17.7705263,10.044263 17.5402632,10.5373636 17.2289474,10.9065974 Z M16.6805263,5.43778247 C16.5615789,4.93363636 16.3894737,4.57071429 16.1639474,4.35375 C16.1005263,4.28984416 16.0321053,4.23514286 15.9610526,4.19201299 C15.8894737,4.14809416 15.8007895,4.10996104 15.6968421,4.07682468 C15.5921053,4.04316234 15.4531579,4.01923052 15.2836842,4.00581818 C15.0989474,3.99109091 14.8663158,3.98372727 14.5913158,3.98372727 C14.3271053,3.98372727 14.1047368,3.99109091 13.9302632,4.00581818 C13.7713158,4.01896753 13.6407895,4.04289935 13.5418421,4.07603571 C13.4442105,4.10785714 13.3618421,4.14599026 13.2963158,4.18780519 C13.2278947,4.23198701 13.16,4.28826623 13.0894737,4.35848377 C12.8681579,4.57124026 12.6960526,4.93389935 12.5781579,5.43778247 C12.4523684,5.97664286 12.3881579,6.60649675 12.3881579,7.31156494 C12.3881579,8.0371461 12.4497368,8.66437013 12.5705263,9.17745779 C12.6834211,9.65635714 12.8531579,10.0063929 13.0786842,10.2236201 C13.1471053,10.2933117 13.2186842,10.3535357 13.2915789,10.4045552 C13.3486842,10.4447922 13.4273684,10.4787175 13.525,10.5055422 C13.6415789,10.5368377 13.7881579,10.5620844 13.9597368,10.5807565 C14.1371053,10.5994286 14.365,10.6094221 14.6368421,10.6094221 C14.8984211,10.6094221 15.1207895,10.5994286 15.2978947,10.5807565 C15.4684211,10.5620844 15.6113158,10.5371006 15.7218421,10.5065942 C15.8192105,10.4789805 15.9013158,10.4434773 15.9660526,10.4000844 C16.04,10.3514318 16.1118421,10.2919968 16.1839474,10.2199383 C16.4047368,10.0066558 16.5744737,9.65662013 16.6876316,9.17772078 C16.8089474,8.66463312 16.8705263,8.03740909 16.8705263,7.31182792 C16.8702632,6.60781169 16.8063158,5.97795779 16.6805263,5.43778247 Z" id="Shape"></path>
                            <path d="M26.0039474,11.7129156 L25.6165789,11.7129156 C25.2957895,11.7129156 25.1507895,11.5130455 25.1207895,11.3318474 C24.9994737,10.8490032 24.8405263,10.2580714 24.6468421,9.5761461 C24.4505263,8.88606818 24.2473684,8.18573377 24.0357895,7.47461688 C23.8286842,6.7777013 23.6210526,6.09972078 23.4184211,5.46039935 C23.2813158,5.02988961 23.1597368,4.6553961 23.0534211,4.34007468 C22.9492105,4.64987338 22.8284211,5.02042208 22.6889474,5.46039935 C22.4878947,6.09393506 22.2792105,6.76639286 22.0628947,7.47698377 C21.8463158,8.18810065 21.6342105,8.88948701 21.4281579,9.58009091 C21.2252632,10.2570195 21.0602632,10.8513701 20.9381579,11.339474 C20.8763158,11.6148214 20.6747368,11.7129156 20.5063158,11.7129156 L20.0415789,11.7129156 C19.7831579,11.7129156 19.6021053,11.5322435 19.6021053,11.2737273 L19.6115789,11.2014058 C19.6544737,11.0296753 19.7336842,10.7511721 19.8473684,10.3753636 C19.9613158,9.99797727 20.0955263,9.55905195 20.2507895,9.05753571 C20.4055263,8.55707143 20.57,8.02136688 20.7460526,7.44884416 C20.9218421,6.87448052 21.0981579,6.31563312 21.2739474,5.7733539 L21.7618421,4.26512338 C21.9115789,3.79963636 22.0413158,3.42040909 22.1478947,3.13217532 C22.1952632,3.01199026 22.2778947,2.91968182 22.3852632,2.86576948 L22.5194737,2.83421104 L23.4331579,2.83421104 C23.4923684,2.83421104 23.5523684,2.84288961 23.6144737,2.8612987 C23.6884211,2.8815487 23.8223684,2.9444026 23.9,3.13796104 C24.0031579,3.4162013 24.1344737,3.79095779 24.29,4.25302597 C24.4457895,4.71351623 24.6084211,5.21661039 24.7797368,5.75994156 C24.9502632,6.30169481 25.125,6.85528247 25.3057895,7.42228247 C25.4865789,7.99138636 25.6523684,8.52709091 25.8031579,9.02913312 C25.9528947,9.5317013 26.0826316,9.97667532 26.1915789,10.3648442 C26.3010526,10.7551169 26.3763158,11.0344091 26.4186842,11.2011429 L26.4271053,11.2734643 C26.4273684,11.5325065 26.2534211,11.7129156 26.0039474,11.7129156 Z" id="Shape"></path>
                            <path d="M33.0886842,11.1351331 C32.8547368,11.3678766 32.5505263,11.5388182 32.1839474,11.64375 C31.8389474,11.7418442 31.415,11.7920747 30.9226316,11.7920747 C30.5160526,11.7920747 30.1084211,11.764987 29.7110526,11.7134416 C29.3136842,11.6608442 28.9568421,11.5916786 28.6476316,11.5062078 C28.4378947,11.4459838 28.3189474,11.2563701 28.3452632,11.0233636 L28.35,10.9920682 L28.4089474,10.7282922 C28.4418421,10.5189545 28.6063158,10.3790455 28.8218421,10.3790455 C28.8413158,10.3790455 28.8623684,10.3798344 28.8839474,10.3829903 L28.9223684,10.3895649 C29.1539474,10.4474221 29.4523684,10.4992305 29.8084211,10.5431494 C30.165,10.5868052 30.5294737,10.6091591 30.8913158,10.6091591 C31.2365789,10.6091591 31.5189474,10.5770747 31.7292105,10.5150097 C31.9136842,10.4597825 32.0544737,10.3732597 32.1597368,10.2491299 C32.2689474,10.1202662 32.3473684,9.94406494 32.3926316,9.72499675 C32.4439474,9.477 32.47,9.16693831 32.47,8.80322727 L32.47,8.09474026 L30.4739474,7.95562013 C29.8939474,7.91249026 29.4413158,7.83254221 29.0902632,7.71156818 C28.7171053,7.58375649 28.4236842,7.39887662 28.2181579,7.16324026 C28.0110526,6.92628896 27.8752632,6.64094805 27.8147368,6.31537013 C27.7605263,6.02424351 27.7334211,5.68367532 27.7334211,5.30234416 C27.7334211,4.85579221 27.7873684,4.46999026 27.8936842,4.1572987 C28.0097368,3.81567857 28.2171053,3.53401948 28.5092105,3.32126299 C28.7863158,3.11955195 29.1502632,2.97175325 29.5915789,2.88233766 C30.01,2.79791883 30.54,2.75478896 31.1657895,2.75478896 C31.5678947,2.75478896 31.9628947,2.77056818 32.3397368,2.80186364 C32.7257895,2.83315909 33.0592105,2.8875974 33.3234211,2.96175974 C33.5715789,3.0232987 33.6528947,3.18187987 33.6786842,3.26866558 C33.7028947,3.34624675 33.7147368,3.42672078 33.7147368,3.50614286 L33.7147368,9.01598377 C33.7147368,9.48488961 33.6705263,9.89357143 33.5831579,10.2317727 C33.4897368,10.5967987 33.3223684,10.9005487 33.0886842,11.1351331 Z M31.5673684,3.91482468 C31.4281579,3.91009091 31.295,3.90798701 31.1671053,3.90798701 C30.7092105,3.90798701 30.3268421,3.9345487 30.0302632,3.9871461 C29.7621053,4.03448377 29.5497368,4.11390584 29.3986842,4.22383442 C29.2605263,4.32482143 29.1660526,4.45657792 29.1089474,4.62725649 C29.0431579,4.82370779 29.0097368,5.07643831 29.0097368,5.37861039 C29.0097368,5.6678961 29.035,5.91536688 29.085,6.11418506 C29.1271053,6.28433766 29.2002632,6.41740909 29.3078947,6.52128896 C29.4171053,6.62648377 29.5776316,6.70722078 29.7855263,6.76008117 C30.0192105,6.81951623 30.3307895,6.84923377 30.71,6.84923377 L32.4713158,6.84923377 L32.4713158,3.97452273 C32.4410526,3.96768506 32.3928947,3.95821753 32.3192105,3.95190584 C32.2178947,3.94191234 32.1036842,3.93533766 31.9778947,3.93007792 L31.5673684,3.91482468 Z" id="Shape"></path>
                            <path d="M41.7884211,10.7009416 C41.5021053,11.0793799 41.1194737,11.36025 40.6523684,11.5369773 C40.2047368,11.7058149 39.6471053,11.7920747 38.9947368,11.7920747 C38.4931579,11.7920747 38.0821053,11.764724 37.7721053,11.7113377 C37.6205263,11.684776 37.5047368,11.6682078 37.4168421,11.6574253 L37.4168421,14.2370649 C37.4168421,14.5000519 37.2323684,14.6838799 36.9692105,14.6838799 L36.5734211,14.6838799 C36.31,14.6838799 36.1263158,14.5000519 36.1263158,14.2370649 L36.1263158,3.46090909 C36.1263158,3.38437987 36.1526316,3.12691558 36.5123684,3.02040584 C36.8510526,2.94861039 37.2278947,2.88549351 37.6328947,2.83342208 C38.04,2.78161364 38.4628947,2.75505195 38.8884211,2.75505195 C39.5973684,2.75505195 40.1965789,2.86366558 40.6702632,3.07826299 C41.1544737,3.2986461 41.5415789,3.6165974 41.8197368,4.02554221 C42.0905263,4.42291558 42.2828947,4.91049351 42.3915789,5.47538961 C42.4960526,6.01872078 42.5489474,6.63647727 42.5489474,7.31156494 C42.5489474,8.07843506 42.4934211,8.74326623 42.3834211,9.28791234 C42.2684211,9.85649026 42.0689474,10.3317078 41.7884211,10.7009416 Z M38.9036842,3.93796753 C38.6205263,3.93796753 38.3336842,3.95322078 38.0505263,3.98241234 C37.7915789,4.00923701 37.5763158,4.03974351 37.4168421,4.07340584 L37.4168421,10.4729318 C37.5726316,10.510539 37.7705263,10.5410455 38.0055263,10.5652403 C38.2881579,10.5944318 38.6052632,10.6094221 38.9492105,10.6094221 C39.4271053,10.6094221 39.8178947,10.549724 40.1113158,10.4326948 C40.3873684,10.3222403 40.5997368,10.1518247 40.76,9.91145455 C40.9289474,9.65793506 41.0494737,9.32025974 41.1181579,8.90737013 C41.1915789,8.46975974 41.2278947,7.93326623 41.2278947,7.31209091 C41.2278947,6.69433442 41.1863158,6.15705195 41.1036842,5.71497078 C41.0255263,5.29498052 40.8944737,4.94836364 40.7155263,4.68485065 C40.5434211,4.43106818 40.3218421,4.24855519 40.0371053,4.12863312 C39.7405263,4.00213636 39.3592105,3.93796753 38.9036842,3.93796753 Z" id="Shape"></path>
                            <path d="M47.3468421,3.93796753 L46.7534211,3.93796753 C46.5494737,3.93796753 46.4355263,3.96005844 46.3742105,3.97925649 C46.345,3.98767208 46.3136842,4.00371429 46.2831579,4.06130844 C46.255,4.11627273 46.2171053,4.22699026 46.2021053,4.44053571 C46.1871053,4.6454026 46.18,4.92548377 46.18,5.27183766 L46.18,14.2368019 C46.18,14.499789 45.9960526,14.6836169 45.7328947,14.6836169 L45.3363158,14.6836169 C45.0734211,14.6836169 44.8889474,14.499789 44.8889474,14.2368019 L44.8889474,5.2266039 C44.8889474,4.82318182 44.905,4.47630195 44.9368421,4.19622078 C44.9718421,3.88957792 45.0478947,3.62895779 45.1626316,3.42356494 C45.2910526,3.1934513 45.4771053,3.02566558 45.7152632,2.9241526 C45.9321053,2.83105519 46.2021053,2.78608442 46.5394737,2.78608442 C46.7223684,2.78608442 46.8860526,2.7945 47.0242105,2.81054221 C47.1552632,2.8268474 47.2728947,2.84499351 47.3794737,2.86576948 C47.6097368,2.8978539 47.7639474,3.07431818 47.7639474,3.3089026 L47.7639474,3.55216558 C47.7639474,3.73836039 47.6334211,3.93796753 47.3468421,3.93796753 Z" id="Shape"></path>
                            <path d="M55.2365789,10.7017305 C55.0031579,11.0522922 54.6660526,11.3260617 54.2347368,11.5162013 C53.8178947,11.6989773 53.2686842,11.7920747 52.6007895,11.7920747 C51.9255263,11.7920747 51.3581579,11.6729416 50.9165789,11.4375682 C50.4713158,11.2014058 50.1115789,10.8697792 49.8463158,10.4529448 C49.5884211,10.0463669 49.4078947,9.56220779 49.3102632,9.01440584 C49.2163158,8.48764286 49.1684211,7.91012338 49.1684211,7.2960487 C49.1684211,6.70432792 49.2136842,6.13496104 49.3021053,5.60372727 C49.3947368,5.04619481 49.5873684,4.55072727 49.875,4.13126299 C50.1676316,3.70390909 50.5781579,3.36334091 51.0963158,3.11797403 C51.6065789,2.87681494 52.2815789,2.75478896 53.1028947,2.75478896 C53.9421053,2.75478896 54.6936842,2.89627597 55.3515789,3.1813539 C55.5426316,3.27629221 55.6434211,3.46117208 55.6178947,3.68944481 L55.57,3.99003896 C55.5381579,4.15177597 55.4281579,4.27169805 55.275,4.31009416 C55.2384211,4.31877273 55.2005263,4.32350649 55.1628947,4.32350649 C55.0955263,4.32350649 55.0265789,4.30983117 54.95,4.27906169 C54.7365789,4.1857013 54.4721053,4.10785714 54.1642105,4.04631818 C53.8557895,3.98451623 53.5394737,3.95322078 53.2252632,3.95322078 C52.6721053,3.95322078 52.2105263,4.01660065 51.8528947,4.14230844 C51.5107895,4.26196753 51.2468421,4.43922078 51.0465789,4.68300974 C50.8434211,4.92942857 50.6971053,5.24895779 50.6118421,5.63291883 C50.5305263,5.99452597 50.4855263,6.42345779 50.4755263,6.91024675 L55.0981579,6.91024675 C55.3057895,6.91024675 55.4726316,6.96731494 55.5952632,7.08013636 C55.7328947,7.2068961 55.7889474,7.42438636 55.7889474,7.82964935 L55.7889474,8.05765909 C55.7889474,8.57758442 55.7544737,9.06069156 55.6860526,9.49646104 C55.6139474,9.95774026 55.4626316,10.3632662 55.2365789,10.7017305 Z M52.6007895,10.6394026 C53.0068421,10.6394026 53.3415789,10.5878571 53.595,10.4860812 C53.835,10.388513 54.0184211,10.2536006 54.1544737,10.0721396 C54.2936842,9.88699675 54.3902632,9.65162338 54.4428947,9.37312013 C54.5,9.06752922 54.5297368,8.71170779 54.5297368,8.31643831 C54.5297368,8.20019805 54.5265789,8.11919805 54.5236842,8.06318182 L50.4771053,8.06318182 C50.4857895,8.35693831 50.5165789,8.64911688 50.5681579,8.93366883 C50.6278947,9.2624026 50.7357895,9.55984091 50.8889474,9.81677922 C51.0363158,10.0631981 51.2402632,10.2580714 51.5118421,10.4113929 C51.7807895,10.5626104 52.1471053,10.6394026 52.6007895,10.6394026 Z" id="Shape"></path>
                            <path d="M72.7555263,11.6398052 L72.3747368,11.6398052 C72.1457895,11.6398052 71.9671053,11.5130455 71.8968421,11.300289 L71.8892105,11.2739903 C71.7786842,10.792724 71.6263158,10.2170455 71.4368421,9.56220779 C71.2442105,8.89869156 71.0463158,8.22439286 70.8434211,7.53983766 C70.6428947,6.86422403 70.4421053,6.21412013 70.2447368,5.60609416 C70.1110526,5.19636039 69.9907895,4.83343831 69.885,4.52153571 C69.7786842,4.82844156 69.6568421,5.19136364 69.5176316,5.60872403 C69.3176316,6.20675649 69.1084211,6.85764935 68.8952632,7.54325649 C68.6815789,8.22807468 68.4736842,8.90211039 68.2705263,9.56641558 C68.0713158,10.2191494 67.9026316,10.7974578 67.7742105,11.2710974 C67.7139474,11.542763 67.5157895,11.6392792 67.3494737,11.6392792 L66.8921053,11.6392792 C66.6376316,11.6392792 66.4602632,11.461763 66.4602632,11.2074545 L66.4678947,11.1403929 C66.5102632,10.9610357 66.5868421,10.691474 66.7018421,10.3146136 C66.8131579,9.9487987 66.9457895,9.52407468 67.0978947,9.04123052 C67.2513158,8.55786039 67.4160526,8.04450974 67.5939474,7.50091558 C67.7721053,6.9578474 67.9471053,6.42713961 68.1197368,5.90852922 C68.2934211,5.39018182 68.4560526,4.90970455 68.6086842,4.46788636 C68.7618421,4.02343831 68.8897368,3.66367208 68.9878947,3.39779221 C69.0515789,3.20660065 69.1886842,3.07668506 69.3663158,3.03092532 C69.2381579,2.70061364 69.1176316,2.42158442 69.0057895,2.2012013 C68.8871053,1.96977273 68.7634211,1.78594481 68.6373684,1.65576623 C68.5221053,1.53742208 68.4,1.45484416 68.2713158,1.40908442 C68.1305263,1.35964286 67.9542105,1.33465909 67.745,1.33465909 C67.5365789,1.33465909 67.3302632,1.3485974 67.1392105,1.37594805 C67.1102632,1.38041883 67.085,1.38278571 67.0621053,1.38278571 C66.8576316,1.38278571 66.7039474,1.22893831 66.7039474,1.02512338 L66.7039474,0.628801948 C66.7039474,0.406051948 66.8392105,0.284551948 66.9639474,0.244051948 C67.0460526,0.213545455 67.1623684,0.194873377 67.3447368,0.182775974 C67.5047368,0.172519481 67.6481579,0.166470779 67.7755263,0.166470779 C68.2015789,0.166470779 68.5673684,0.234847403 68.8634211,0.367918831 C69.1660526,0.504672078 69.4376316,0.729525974 69.6710526,1.03748377 C69.8884211,1.32571753 70.095,1.70573377 70.2865789,2.16753896 C70.4694737,2.61067208 70.6765789,3.16662662 70.9018421,3.82067532 C70.9934211,4.08550325 71.1086842,4.4265974 71.2463158,4.84422078 C71.3815789,5.25500649 71.5265789,5.69787662 71.6878947,6.19229221 C71.8452632,6.67461039 72.0060526,7.17270779 72.1684211,7.68605844 C72.3315789,8.19993506 72.4815789,8.68277922 72.6192105,9.13564286 C72.755,9.58245779 72.8736842,9.99324351 72.9713158,10.3540617 C73.0707895,10.7211916 73.1352632,10.9823377 73.1676316,11.1535422 L73.1726316,11.2074545 C73.1723684,11.462289 73.0007895,11.6398052 72.7555263,11.6398052 Z" id="Shape"></path>
                            <path d="M80.6863158,10.7687922 C80.3973684,11.1267175 79.9976316,11.3920714 79.4978947,11.5561753 C79.0228947,11.7121266 78.4078947,11.7918117 77.6692105,11.7918117 C77.2415789,11.7918117 76.8360526,11.764724 76.4634211,11.7121266 C76.1028947,11.6616331 75.7397368,11.5998312 75.3834211,11.5293506 C75.1494737,11.4964773 74.9989474,11.3244838 74.9989474,11.0859545 L74.9989474,0.490733766 C74.9989474,0.226957792 75.1826316,0.0431298701 75.4457895,0.0431298701 L75.8421053,0.0431298701 C76.1055263,0.0431298701 76.2892105,0.226957792 76.2892105,0.490733766 L76.2892105,3.02198377 C76.4521053,2.997 76.6284211,2.97438312 76.8155263,2.9543961 C77.1089474,2.92362662 77.3807895,2.90732143 77.6239474,2.90732143 C78.3502632,2.90732143 78.965,3.00936039 79.4505263,3.2115974 C79.9523684,3.41988312 80.3557895,3.73546753 80.6510526,4.14888312 C80.9389474,4.55309416 81.1431579,5.06381494 81.2565789,5.66605519 C81.3660526,6.24436364 81.4215789,6.92576299 81.4215789,7.69158117 C81.4215789,8.36693182 81.3705263,8.95996753 81.2707895,9.4546461 C81.1655263,9.97693831 80.9684211,10.4187565 80.6863158,10.7687922 Z M77.6394737,4.09023701 C77.3876316,4.09023701 77.1236842,4.10759416 76.8531579,4.14151948 C76.6284211,4.16887013 76.4357895,4.19937662 76.2894737,4.22777922 L76.2894737,10.4881851 C76.4378947,10.5244773 76.6097368,10.5528799 76.8013158,10.5726039 C77.0355263,10.5967987 77.3276316,10.6091591 77.6692105,10.6091591 C78.1586842,10.6091591 78.5702632,10.5639253 78.8936842,10.4750357 C79.19,10.3935097 79.42,10.2559675 79.5952632,10.0553084 C79.7734211,9.85123052 79.9023684,9.56588961 79.9781579,9.20691234 C80.06,8.81637662 80.1015789,8.30670779 80.1015789,7.69184416 C80.1015789,7.04016234 80.0639474,6.46895455 79.99,5.99426299 C79.9210526,5.54534416 79.7947368,5.17348052 79.6142105,4.88945455 C79.4421053,4.61884091 79.2118421,4.42396753 78.9089474,4.29457792 C78.5923684,4.15913961 78.1647368,4.09023701 77.6394737,4.09023701 Z" id="Shape"></path>
                            <path d="M89.5473684,7.08013636 C89.6852632,7.2068961 89.7415789,7.42438636 89.7415789,7.82964935 L89.7415789,8.05765909 C89.7415789,8.57758442 89.7068421,9.06069156 89.6389474,9.49646104 C89.5657895,9.95800325 89.4147368,10.3635292 89.1892105,10.7019935 C88.9547368,11.0525552 88.6176316,11.3263247 88.1868421,11.5164643 C87.77,11.6992403 87.2205263,11.7923377 86.5528947,11.7923377 C85.8771053,11.7923377 85.3105263,11.6732045 84.8686842,11.4378312 C84.4236842,11.2016688 84.0636842,10.8700422 83.7986842,10.4532078 C83.5407895,10.0476818 83.3602632,9.56378571 83.2621053,9.01466883 C83.1686842,8.48711688 83.1207895,7.90880844 83.1207895,7.29631169 C83.1207895,6.70459091 83.1657895,6.13522403 83.2544737,5.60399026 C83.3468421,5.04645779 83.5397368,4.55099026 83.8276316,4.13152597 C84.1194737,3.70417208 84.5307895,3.3636039 85.0486842,3.11823701 C85.5586842,2.87707792 86.2339474,2.75505195 87.0552632,2.75505195 C87.8942105,2.75505195 88.6460526,2.89653896 89.3039474,3.18214286 C89.4957895,3.27708117 89.5955263,3.46196104 89.5702632,3.68918182 L89.5223684,3.99030195 C89.4905263,4.15256494 89.3805263,4.27196104 89.2273684,4.31035714 C89.1913158,4.31903571 89.1528947,4.32376948 89.115,4.32376948 C89.0476316,4.32376948 88.9792105,4.31009416 88.9031579,4.27932468 C88.6894737,4.18596429 88.4252632,4.10812013 88.1173684,4.04658117 C87.8084211,3.98477922 87.4923684,3.95348377 87.1771053,3.95348377 C86.6244737,3.95348377 86.1631579,4.01686364 85.8052632,4.14257143 C85.4628947,4.26249351 85.1994737,4.43948377 84.9989474,4.68327273 C84.7960526,4.92969156 84.6492105,5.24922078 84.5636842,5.63318182 C84.4823684,5.99557792 84.4371053,6.42450974 84.4278947,6.91050974 L89.0505263,6.91050974 C89.2578947,6.91024675 89.425,6.96731494 89.5473684,7.08013636 Z M86.5528947,10.6394026 C86.9584211,10.6394026 87.2936842,10.5878571 87.5463158,10.4860812 C87.7873684,10.388513 87.9702632,10.2536006 88.1065789,10.0726656 C88.2455263,9.88699675 88.3423684,9.6510974 88.395,9.37312013 C88.4531579,9.06674026 88.4821053,8.71118182 88.4821053,8.31643831 C88.4821053,8.19993506 88.4789474,8.11867208 88.4760526,8.06318182 L84.4289474,8.06318182 C84.4381579,8.35614935 84.4689474,8.64832792 84.5202632,8.93393182 C84.5794737,9.26187662 84.6878947,9.55905195 84.8415789,9.81677922 C84.9886842,10.0631981 85.1921053,10.2580714 85.4644737,10.4113929 C85.7326316,10.5628734 86.0989474,10.6394026 86.5528947,10.6394026 Z" id="Shape"></path>
                            <path d="M66.1252632,13.8465292 L59.6918421,13.8465292 C59.4310526,13.8465292 59.2486842,13.6645422 59.2486842,13.4039221 L59.2486842,13.0717695 C59.2486842,12.8111494 59.4310526,12.6178539 59.6918421,12.6178539 L62.2476316,12.6178539 L62.2476316,3.35413636 C62.2476316,3.09114935 62.4321053,2.90732143 62.695,2.90732143 L63.1215789,2.90732143 C63.385,2.90732143 63.5686842,3.09114935 63.5686842,3.35413636 L63.5686842,12.6181169 L66.125,12.6181169 C66.3857895,12.6181169 66.5681579,12.8111494 66.5681579,13.0720325 L66.5681579,13.4041851 C66.5681579,13.6645422 66.3860526,13.8465292 66.1252632,13.8465292 Z" id="Shape"></path>
                        </g>
                    </g>
                </g>
            </g>
            <g id="Group-3" transform="translate(59.636364, 59.636364)">
                <g id="Rectangle-3-Copy">
                    <use fill="#000000" fill-rule="evenodd" xlink:href="#path-2"></use>
                    <rect stroke="#FFFFFF" stroke-width="1" x="0.5" y="0.5" width="99" height="99" rx="13"></rect>
                </g>
                <g id="typepad" transform="translate(14.601399, 28.685315)" fill="#D5DC73" fill-rule="nonzero">
                    <path d="M70,21.4179104 C70,33.2469896 54.3285714,42.8358209 35,42.8358209 C24.3071429,42.8358209 8.2,39.7394274 8.31428571,35.273201 C8.42857143,30.8854545 36.4642857,17.8577714 36.4642857,17.8577714 C36.4642857,17.8577714 10.3571429,29.5013523 2.18571429,28.8806467 C0.4,28.7450903 0,24.0434238 0,21.4179104 C0,9.58883133 15.6714286,0 35,0 C54.3285714,0 70,9.58883133 70,21.4179104 Z" id="Shape"></path>
                </g>
            </g>
        </g>
        <g id="Path">
            <use fill="black" fill-opacity="1" filter="url(#filter-5)" xlink:href="#path-4"></use>
            <use fill="url(#linearGradient-3)" fill-rule="evenodd" xlink:href="#path-4"></use>
        </g>
        <g id="download" transform="translate(20.000000, 111.000000)" fill-rule="nonzero">
            <g>
                <use fill="black" fill-opacity="1" filter="url(#filter-7)" xlink:href="#path-6"></use>
                <use fill="url(#linearGradient-3)" fill-rule="evenodd" xlink:href="#path-6"></use>
            </g>
        </g>
    </g>
</svg>